Coordinates
version=1
nRows=16
nColumns=32
inDegrees=yes

Units are S.I. units (second, meters, Newtons, ...)
If the header above contains a line with 'inDegrees', this indicates whether rotational values are in degrees (yes) or radians (no).

endheader
time	pelvis_tilt	pelvis_list	pelvis_rotation	pelvis_tx	pelvis_ty	pelvis_tz	hip_flexion_r	hip_adduction_r	hip_rotation_r	knee_angle_r	knee_adduction_r	med_cond_adduction_r	lat_cond_adduction_r	patella_r_constrained_knee_angle	ankle_angle_r	subtalar_angle_r	mtp_angle_r	hip_flexion_l	hip_adduction_l	hip_rotation_l	knee_angle_l	knee_adduction_l	med_cond_adduction_l	lat_cond_adduction_l	patella_l_constrained_knee_angle	ankle_angle_l	subtalar_angle_l	mtp_angle_l	lumbar_extension	lumbar_bending	lumbar_rotation
      0.67916667	     30.58663282	     -6.58064033	    103.89948193	      0.44395866	      1.12443920	     -2.01242736	     20.14592317	     29.94330525	      8.73589475	    -31.89479971	     -0.00000000	     -0.00000000	      0.00000000	     -0.55666927	     -2.63462428	     12.48111360	     -0.00000000	     -7.00120580	    -32.05097516	     10.23365331	     -8.37579708	     -0.00000000	      0.00000000	     -0.00000000	     -0.14618524	    -26.94703392	      7.51777814	      0.00000000	      0.00000000	      0.00000001	     -0.00000001
      0.68333333	     30.24056454	     -7.61773255	    103.47264010	      0.44755237	      1.12564952	     -2.02581843	     20.95335063	     29.94360859	     11.36943949	    -29.49688190	     -0.00000000	      0.00000000	     -0.00000000	     -0.51481771	     -4.62278381	      7.66838218	     -0.00000000	     -6.76428494	    -31.70661538	      9.56728750	     -8.21409368	     -0.00000000	      0.00000000	     -0.00000000	     -0.14336298	    -28.55594343	      7.97727097	      0.00000000	      0.00000000	      0.00000001	     -0.00000000
      0.68750000	     29.88853488	     -8.51925690	    103.03981887	      0.45099350	      1.12677115	     -2.03942785	     21.53542482	     29.94330805	     14.06742755	    -26.95880643	     -0.00000000	     -0.00000000	      0.00000000	     -0.47051993	     -7.16984659	      2.17339230	     -0.00000000	     -6.68519173	    -31.39113310	      8.85080494	     -8.08397353	     -0.00000000	      0.00000000	     -0.00000000	     -0.14109195	    -30.00142757	      8.42648897	     -0.00000000	      0.00000000	      0.00000000	     -0.00000000
      0.69166667	     29.53793027	     -9.26239570	    102.54901233	      0.45420654	      1.12778306	     -2.05333004	     21.87144671	     29.94239718	     16.83654737	    -24.38047057	     -0.00000000	      0.00000000	     -0.00000000	     -0.42551948	    -10.29287448	     -3.78093943	      0.00000000	     -6.81488963	    -31.10474953	      7.93941123	     -8.00974331	      0.00000000	      0.00000000	     -0.00000000	     -0.13979639	    -31.10274798	      8.96468781	      0.00000000	      0.00000000	      0.00000000	     -0.00000000
      0.69583333	     29.21171166	     -9.86516349	    102.04260958	      0.45723025	      1.12864009	     -2.06745764	     22.03143170	     29.94039889	     19.59370029	    -21.79433125	      0.00000000	      0.00000000	     -0.00000000	     -0.38038284	    -13.87895290	    -10.03961091	     -0.00000000	     -7.09484915	    -30.87446686	      6.87814884	     -8.01194251	     -0.00000000	     -0.00000000	      0.00000000	     -0.13983478	    -32.07528264	      9.67370088	     -0.00000000	      0.00000000	      0.00000000	     -0.00000000
      0.70000000	     28.91836094	    -10.34953699	    101.42187701	      0.46000093	      1.12923186	     -2.08183502	     22.06971553	     29.93618029	     22.27680112	    -19.33508196	      0.00000000	     -0.00000000	      0.00000000	     -0.33746084	    -17.61808495	    -15.82433253	      0.00000000	     -7.58821358	    -30.65683796	      5.61926257	     -8.06706596	      0.00000000	      0.00000000	     -0.00000000	     -0.14079686	    -32.86012090	     10.15168532	      0.00000000	      0.00000000	      0.00000000	     -0.00000000
      0.70416667	     28.71406232	    -10.72172756	    100.69369889	      0.46235443	      1.12960918	     -2.09629425	     22.13147997	     29.92860830	     24.63264019	    -17.33777103	     -0.00000000	     -0.00000000	      0.00000000	     -0.30260119	    -20.07379982	    -18.74453838	     -0.00000000	     -8.28143513	    -30.49974106	      4.13897157	     -8.17095307	     -0.00000000	     -0.00000000	      0.00000000	     -0.14261003	    -33.46592347	     10.64949284	     -0.00000000	      0.00000000	      0.00000000	     -0.00000000
      0.70833333	     28.56107929	    -11.03904613	     99.90732668	      0.46443038	      1.12971424	     -2.11078024	     22.28641760	     29.91639395	     26.60624688	    -15.81079471	     -0.00000000	      0.00000000	     -0.00000000	     -0.27595043	    -21.14041865	    -19.40495800	     -0.00000000	     -9.04340410	    -30.36088348	      2.53993449	     -8.36466851	      0.00000000	      0.00000000	     -0.00000000	     -0.14599101	    -34.02586488	     11.09227852	      0.00000000	      0.00000000	      0.00000000	     -0.00000000
      0.71250000	     28.38001495	    -11.41941673	     99.01513534	      0.46653338	      1.12939108	     -2.12553592	     22.53075696	     29.89693039	     28.42716075	    -14.52222591	      0.00000000	      0.00000000	     -0.00000000	     -0.25346066	    -21.74973269	    -19.61635134	      0.00000000	     -9.82684126	    -30.13572352	      0.80041293	     -8.59813824	      0.00000000	      0.00000000	     -0.00000000	     -0.15006582	    -34.66910202	     11.27974675	      0.00000000	      0.00000000	      0.00000000	     -0.00000000
      0.71666667	     28.16332401	    -11.68128189	     98.10789641	      0.46839737	      1.12907976	     -2.14018087	     22.69582314	     29.86495482	     30.15539217	    -13.42403547	      0.00000000	     -0.00000000	      0.00000000	     -0.23429362	    -22.14810906	    -19.71602382	      0.00000000	    -10.73471508	    -29.84338489	     -0.82650707	     -8.86596104	     -0.00000000	     -0.00000000	      0.00000000	     -0.15474021	    -35.26062064	     11.53555567	     -0.00000000	      0.00000000	      0.00000000	     -0.00000000
      0.72083333	     27.87891738	    -11.92955847	     97.14119477	      0.47021472	      1.12856949	     -2.15498004	     22.85030058	     29.80633276	     31.76218271	    -12.51071045	     -0.00000000	      0.00000000	     -0.00000000	     -0.21835309	    -22.31853801	    -19.77348700	      0.00000000	    -11.67627433	    -29.43475791	     -2.44413815	     -9.21378894	     -0.00000000	      0.00000000	     -0.00000000	     -0.16081095	    -35.66632395	     11.75999061	     -0.00000000	      0.00000000	      0.00000000	     -0.00000000
      0.72500000	     27.48848790	    -12.07084452	     96.19423483	      0.47192873	      1.12803007	     -2.16950786	     22.94410868	     29.66960921	     33.19782686	    -11.71899434	     -0.00000000	      0.00000000	     -0.00000000	     -0.20453504	    -22.28176605	    -19.81122380	     -0.00000000	    -12.66980949	    -28.90662138	     -3.84525693	     -9.64267057	     -0.00000000	      0.00000000	     -0.00000000	     -0.16829635	    -35.81892418	     11.95431063	     -0.00000000	      0.00000000	      0.00000000	     -0.00000000
      0.72916667	     26.82738657	    -12.51843371	     95.18586230	      0.47348114	      1.12713420	     -2.18435023	     23.27037198	     29.24021185	     34.69456864	    -11.00786800	      0.00000000	      0.00000000	     -0.00000000	     -0.19212354	    -22.04026475	    -19.83636856	     -0.00000000	    -13.35477537	    -27.98048568	     -4.91527242	     -9.98327561	      0.00000000	      0.00000000	     -0.00000000	     -0.17424103	    -35.93302222	     11.86265037	     -0.00000000	      0.00000000	      0.00000000	     -0.00000000
      0.73333333	     25.56375221	    -12.91448624	     94.26655712	      0.47467011	      1.12648512	     -2.19871085	     23.54424839	     28.17754889	     36.09391975	    -10.37079825	     -0.00000000	      0.00000000	     -0.00000000	     -0.18100458	    -21.56998108	    -19.85467914	     -0.00000000	    -13.87255022	    -26.40908991	     -5.11236508	    -10.29368169	     -0.00000000	      0.00000000	     -0.00000000	     -0.17965864	    -35.97493978	     11.31968376	      0.00000000	      0.00000000	      0.00000000	     -0.00000000
      0.73750000	     24.01737581	    -13.36454370	     93.43924579	      0.47565945	      1.12575264	     -2.21290176	     23.91637399	     26.79240402	     37.36621727	     -9.76364447	      0.00000000	      0.00000000	     -0.00000000	     -0.17040774	    -21.05783992	    -19.86813763	     -0.00000000	    -14.16843007	    -24.55035427	     -4.77239499	    -10.61753746	     -0.00000000	      0.00000000	     -0.00000000	     -0.18531099	    -35.96900241	     10.56645454	      0.00000000	      0.00000000	      0.00000000	     -0.00000000
      0.74166667	     22.41009275	    -13.76610552	     92.68506501	      0.47643931	      1.12495679	     -2.22703530	     24.31364010	     25.32140657	     38.45218240	     -9.19290002	     -0.00000000	     -0.00000000	      0.00000000	     -0.16044637	    -20.52642210	    -19.87856628	      0.00000000	    -14.41887978	    -22.62808135	     -4.09957437	    -10.91383162	      0.00000000	     -0.00000000	      0.00000000	     -0.19048230	    -36.00903969	      9.66803069	     -0.00000000	      0.00000000	      0.00000000	     -0.00000000
